<?xml version="1.0" encoding="utf-8"?>
<!-- Generator: Adobe Illustrator 19.2.0, SVG Export Plug-In . SVG Version: 6.00 Build 0)  -->
<svg version="1.1" id="Capa_1" xmlns="http://www.w3.org/2000/svg" xmlns:xlink="http://www.w3.org/1999/xlink" x="0px" y="0px"
	 viewBox="0 0 30 18" style="enable-background:new 0 0 30 18;" xml:space="preserve">
<style type="text/css">
	.st0{fill:#030104;}
</style>
<path class="st0" d="M19.5,13.5v-1.2c0.3,0,0.6,0.3,0.6,0.6h0.6c0-0.6-0.5-1.2-1.2-1.2v-0.6h-0.6v0.6c-0.6,0-1.2,0.5-1.2,1.2
	s0.5,1.2,1.2,1.2v1.2c-0.3,0-0.6-0.3-0.6-0.6h-0.6c0,0.6,0.5,1.2,1.2,1.2v0.6h0.6v-0.6c0.6,0,1.2-0.5,1.2-1.2
	C20.6,14,20.1,13.5,19.5,13.5z M18.3,12.9c0-0.3,0.3-0.6,0.6-0.6v1.2C18.5,13.5,18.3,13.2,18.3,12.9z M19.5,15.2v-1.2
	c0.3,0,0.6,0.3,0.6,0.6S19.8,15.2,19.5,15.2z"/>
<path class="st0" d="M19.3,9.7c0.3-0.8,0.4-1.5,0.4-2.3c0-3.8-3.1-7-7-7s-7,3.1-7,7s3.1,7,7,7c0.8,0,1.6-0.1,2.3-0.4
	c0.1,2.2,1.9,3.9,4.1,3.9c2.2,0,4.1-1.8,4.1-4.1C23.2,11.6,21.5,9.8,19.3,9.7z M6.3,7.4C6.3,3.9,9.2,1,12.8,1s6.4,2.9,6.4,6.4
	c0,0.8-0.1,1.6-0.4,2.4c-1.9,0.2-3.4,1.7-3.6,3.6c-0.8,0.3-1.5,0.4-2.4,0.4C9.2,13.8,6.3,10.9,6.3,7.4z M19.2,17.3
	c-1.9,0-3.5-1.6-3.5-3.5s1.6-3.5,3.5-3.5s3.5,1.6,3.5,3.5S21.1,17.3,19.2,17.3z"/>
<path class="st0" d="M16.5,4.5c-2.3,0.7-4.3,1.1-6.1,1.2C10.2,5.3,9.9,5,9.5,5C9.1,5,8.7,5.4,8.7,5.9v2.3c0,0.5,0.4,0.9,0.9,0.9
	c0.2,0,0.4-0.1,0.6-0.2c0,0.8,0.7,1.4,1.5,1.4c0.8,0,1.5-0.6,1.5-1.5c1.1,0.2,2.2,0.5,3.4,0.8l0.4,0.1V4.3L16.5,4.5z M9.5,8.5
	c-0.2,0-0.3-0.1-0.3-0.3V5.9c0-0.2,0.1-0.3,0.3-0.3c0.2,0,0.3,0.1,0.3,0.3v2.3C9.8,8.4,9.7,8.5,9.5,8.5z M12.5,8.8
	c0,0.5-0.4,0.9-0.9,0.9s-0.9-0.4-0.9-0.9V8.6C11.3,8.6,11.8,8.7,12.5,8.8L12.5,8.8z M16.2,9c-2.2-0.6-4.1-1-5.8-1V6.2
	c1.7-0.1,3.7-0.4,5.8-1V9z"/>
</svg>
