<?xml version="1.0" encoding="utf-8"?>
<!-- Generator: Adobe Illustrator 19.2.0, SVG Export Plug-In . SVG Version: 6.00 Build 0)  -->
<svg version="1.1" id="Capa_1" xmlns="http://www.w3.org/2000/svg" xmlns:xlink="http://www.w3.org/1999/xlink" x="0px" y="0px"
	 viewBox="0 0 100 50" style="enable-background:new 0 0 100 50;" xml:space="preserve">
<style type="text/css">
	.st0{fill:#FFFFFF;}
</style>
<g>
	<path class="st0" d="M2.1,24.4v13.9c0,1.1,0.9,2,2,2h6.7c1,5,5.5,8.8,10.8,8.8s9.8-3.8,10.8-8.8h34c1,5,5.5,8.8,10.8,8.8
		s9.8-3.8,10.8-8.8h7.4c1.1,0,2-0.9,2-2v-6.7c0-6.7-5-12.4-11.7-13.3l-13.1-1.7L58.4,3.1c-2.1-2-4.8-3.1-7.7-3.1L25.2,0
		c-2.8,0-5.6,1.1-7.6,3L7,13C3.9,15.9,2.1,20.1,2.1,24.4z M25.2,4h8.4l-1.4,12.6H9.1c0.2-0.2,0.4-0.5,0.7-0.7l10.6-10
		C21.7,4.7,23.4,4,25.2,4z M37.7,4h2.5l1.4,12.6h-5.3L37.7,4z M66.8,16.6H45.6L44.2,4h6.5c1.8,0,3.6,0.7,4.9,2L66.8,16.6z
		 M70.2,38.1c0-3.9,3.2-7,7-7c3.9,0,7,3.2,7,7s-3.2,7-7,7C73.4,45.2,70.2,42,70.2,38.1z M14.6,38.1c0-3.9,3.2-7,7-7c3.9,0,7,3.2,7,7
		s-3.2,7-7,7C17.7,45.2,14.6,42,14.6,38.1z M6.1,36.3V24.4c0-1.3,0.2-2.6,0.6-3.8h64.8c0.2,0,0.3,0,0.5-0.1l13.2,1.7
		c4.7,0.6,8.2,4.6,8.2,9.3v4.7h-5.3c-0.9-5.2-5.4-9.2-10.9-9.2s-10,4-10.9,9.2H32.5c-0.9-5.2-5.4-9.2-10.9-9.2s-10,4-10.9,9.2H6.1
		L6.1,36.3z"/>
</g>
</svg>
