<?xml version="1.0" encoding="utf-8"?>
<!-- Generator: Adobe Illustrator 19.2.0, SVG Export Plug-In . SVG Version: 6.00 Build 0)  -->
<svg version="1.1" id="Capa_1" xmlns="http://www.w3.org/2000/svg" xmlns:xlink="http://www.w3.org/1999/xlink" x="0px" y="0px"
	 viewBox="0 0 100 100" style="enable-background:new 0 0 100 100;" xml:space="preserve">
<style type="text/css">
	.st0{fill:#FFFFFF;}
</style>
<g>
	<path class="st0" d="M50.1,100c-13.2,0-25.7-5.2-35.1-14.5C5.7,76.1,0.6,63.7,0.6,50.4s5.2-25.7,14.5-35.1
		C24.5,6,36.9,0.9,50.1,0.9S75.8,6,85.2,15.4c9.4,9.4,14.5,21.8,14.5,35.1s-5.2,25.7-14.5,35.1C75.8,94.8,63.4,100,50.1,100z
		 M50.1,2.9c-12.7,0-24.6,4.9-33.6,13.9c-9,9-13.9,20.9-13.9,33.6S7.6,75,16.6,84c9,9,20.9,13.9,33.6,13.9S74.8,93,83.7,84
		c9-9,13.9-20.9,13.9-33.6s-4.9-24.6-13.9-33.6C74.8,7.9,62.8,2.9,50.1,2.9z"/>
</g>
<g>
	<g>
		<path class="st0" d="M21.3,50.3v8.4c0,0.7,0.5,1.2,1.2,1.2h4.1c0.6,3,3.3,5.3,6.5,5.3c3.2,0,5.9-2.3,6.5-5.3h20.6
			c0.6,3,3.3,5.3,6.5,5.3c3.2,0,5.9-2.3,6.5-5.3h4.5c0.7,0,1.2-0.5,1.2-1.2v-4.1c0-4.1-3-7.5-7.1-8.1l-7.9-1l-8.6-8.2
			c-1.3-1.2-2.9-1.9-4.6-1.9H35.3c-1.7,0-3.4,0.6-4.6,1.8l-6.4,6C22.4,45.2,21.3,47.7,21.3,50.3z M35.3,38h5.1l-0.9,7.6h-14
			c0.1-0.1,0.3-0.3,0.4-0.4l6.4-6C33.2,38.4,34.2,38,35.3,38z M42.9,38h1.5l0.9,7.6H42L42.9,38z M60.5,45.6H47.7L46.8,38h3.9
			c1.1,0,2.2,0.4,3,1.2L60.5,45.6z M62.5,58.6c0-2.3,1.9-4.3,4.3-4.3c2.3,0,4.3,1.9,4.3,4.3s-1.9,4.3-4.3,4.3
			C64.4,62.9,62.5,61,62.5,58.6z M28.9,58.6c0-2.3,1.9-4.3,4.3-4.3c2.3,0,4.3,1.9,4.3,4.3s-1.9,4.3-4.3,4.3
			C30.8,62.9,28.9,61,28.9,58.6z M23.7,57.5v-7.2c0-0.8,0.1-1.6,0.4-2.3h39.2c0.1,0,0.2,0,0.3,0l8,1.1c2.8,0.4,5,2.8,5,5.6v2.8h-3.2
			c-0.5-3.2-3.3-5.6-6.6-5.6c-3.3,0-6.1,2.4-6.6,5.6H39.7c-0.5-3.2-3.3-5.6-6.6-5.6s-6.1,2.4-6.6,5.6H23.7L23.7,57.5z"/>
	</g>
</g>
</svg>
