<?xml version="1.0" encoding="utf-8"?>
<!-- Generator: Adobe Illustrator 19.2.0, SVG Export Plug-In . SVG Version: 6.00 Build 0)  -->
<svg version="1.1" id="Capa_1" xmlns="http://www.w3.org/2000/svg" xmlns:xlink="http://www.w3.org/1999/xlink" x="0px" y="0px"
	 viewBox="0 0 18 18" style="enable-background:new 0 0 18 18;" xml:space="preserve">
<style type="text/css">
	.st0{fill:#FFFFFF;}
</style>
<path class="st0" d="M6.5,16.1c6.3,0,9.8-5.2,9.8-9.8c0-0.1,0-0.3,0-0.4C17,5.3,17.5,4.7,18,4c-0.6,0.3-1.3,0.5-2,0.5
	c0.7-0.4,1.3-1.1,1.5-1.9c-0.7,0.4-1.4,0.7-2.2,0.8c-0.6-0.7-1.5-1.1-2.5-1.1c-1.9,0-3.4,1.5-3.4,3.4c0,0.3,0,0.5,0.1,0.8
	C6.6,6.5,4.1,5.1,2.4,3.1C2.1,3.6,1.9,4.2,1.9,4.8C1.9,6,2.5,7,3.5,7.7c-0.6,0-1.1-0.2-1.6-0.4c0,0,0,0,0,0c0,1.7,1.2,3.1,2.8,3.4
	c-0.3,0.1-0.6,0.1-0.9,0.1c-0.2,0-0.4,0-0.6-0.1c0.4,1.4,1.7,2.4,3.2,2.4c-1.2,0.9-2.7,1.5-4.3,1.5c-0.3,0-0.6,0-0.8,0
	C2.8,15.5,4.6,16.1,6.5,16.1"/>
</svg>
