<?xml version="1.0" encoding="utf-8"?>
<!-- Generator: Adobe Illustrator 19.2.0, SVG Export Plug-In . SVG Version: 6.00 Build 0)  -->
<svg version="1.1" id="Capa_1" xmlns="http://www.w3.org/2000/svg" xmlns:xlink="http://www.w3.org/1999/xlink" x="0px" y="0px"
	 viewBox="0 0 55 50" style="enable-background:new 0 0 55 50;" xml:space="preserve">
<style type="text/css">
	.st0{fill:#444444;}
</style>
<g>
	<path class="st0" d="M12.6,48.6h29.9c2.2,0,3.9-1.8,3.9-3.9V31.3c0-1.7-1.4-3.1-3.1-3.1h-1.1l2.7-6c0-0.1,0.1-0.2,0.1-0.3V8.5
		c0-2.2-1.8-3.9-3.9-3.9H40c-0.4-2.1-2.5-3.5-4.6-3.1c-0.8,0.2-1.6,0.6-2.2,1.3c-0.6-0.8-1.5-1.3-2.6-1.3h-6.3c-1,0-2,0.5-2.6,1.3
		c-1.4-1.6-3.9-1.8-5.5-0.4c-0.7,0.6-1.1,1.3-1.3,2.2h-0.9c-2.2,0-3.9,1.8-3.9,3.9v13.4c0,0.1,0,0.2,0.1,0.3l2.7,6h-1.1
		c-1.7,0-3.1,1.4-3.1,3.1v13.4C8.6,46.8,10.4,48.6,12.6,48.6z M33.8,5.3C33.8,4,34.8,3,36.2,3c1.3,0,2.4,1.1,2.4,2.4v7.9
		c0,0.4-0.4,0.8-0.8,0.8h-3.9V5.3z M34.3,15.6h1.4l-5.9,11.8c-0.3-0.2-0.7-0.4-1.1-0.5L34.3,15.6z M29.9,30.5c0,1.3-1.1,2.4-2.4,2.4
		c-1.3,0-2.4-1.1-2.4-2.4s1.1-2.4,2.4-2.4C28.8,28.1,29.9,29.2,29.9,30.5z M22.8,5.3V4.5c0-0.9,0.7-1.6,1.6-1.6h6.3
		c0.9,0,1.6,0.7,1.6,1.6V14h-9.4V5.3z M32.5,15.6l-5,10l-5-10H32.5z M26.3,26.8c-0.4,0.1-0.8,0.3-1.1,0.5l-5.9-11.8h1.4L26.3,26.8z
		 M16.5,5.3C16.5,4,17.5,3,18.8,3s2.4,1.1,2.4,2.4V14h-3.9c-0.4,0-0.8-0.4-0.8-0.8V5.3z M11.8,21.7V8.5c0-1.3,1.1-2.4,2.4-2.4h0.8
		v7.1c0,1.3,1.1,2.4,2.4,2.4h0.3l6.5,13c-0.3,0.6-0.5,1.2-0.5,1.9c0,2.2,1.8,3.9,3.9,3.9s3.9-1.8,3.9-3.9c0-0.7-0.2-1.3-0.5-1.9
		l6.5-13h0.3c1.3,0,2.4-1.1,2.4-2.4V6.1h0.8c1.3,0,2.4,1.1,2.4,2.4v13.2l-2.9,6.5h-1.1c-1,0-1.9,0.6-2.2,1.6h-1.7
		c-1.7,0-3.1,1.4-3.1,3.1v1.6h-9.4v-1.6c0-1.7-1.4-3.1-3.1-3.1h-1.7c-0.3-0.9-1.2-1.6-2.2-1.6h-1.1L11.8,21.7z M19.1,38.1
		c0.3,0.3,0.8,0.3,1.1,0l0,0l2.1-2.1h10.4l2.1,2.1c0.3,0.3,0.8,0.3,1.1,0c0.3-0.3,0.3-0.8,0-1.1l-2.1-2.1v-2c0-0.9,0.7-1.6,1.6-1.6
		h1.6v7.9H18.1v-7.9h1.6c0.9,0,1.6,0.7,1.6,1.6v2L19.1,37C18.8,37.3,18.8,37.8,19.1,38.1L19.1,38.1z M10.2,31.3
		c0-0.9,0.7-1.6,1.6-1.6h3.9c0.4,0,0.8,0.4,0.8,0.8v9.1L12,44.1c-0.3,0.3-0.3,0.8,0,1.1c0.3,0.3,0.8,0.3,1.1,0c0,0,0,0,0,0l4.5-4.5
		h19.8l4.5,4.5c0.3,0.3,0.8,0.3,1.1,0c0.3-0.3,0.3-0.8,0-1.1l-4.5-4.5v-9.1c0-0.4,0.4-0.8,0.8-0.8h3.9c0.9,0,1.6,0.7,1.6,1.6v13.4
		c0,1.3-1.1,2.4-2.4,2.4H12.6c-1.3,0-2.4-1.1-2.4-2.4V31.3z"/>
	<path class="st0" d="M17.3,45.5h9.4c0.4,0,0.8-0.4,0.8-0.8c0-0.4-0.4-0.8-0.8-0.8h-9.4c-0.4,0-0.8,0.4-0.8,0.8
		C16.5,45.1,16.8,45.5,17.3,45.5z"/>
	<path class="st0" d="M29.9,45.5h1.6c0.4,0,0.8-0.4,0.8-0.8c0-0.4-0.4-0.8-0.8-0.8h-1.6c-0.4,0-0.8,0.4-0.8,0.8
		C29.1,45.1,29.4,45.5,29.9,45.5z"/>
	<path class="st0" d="M15.7,26.6c0.4,0,0.8-0.4,0.8-0.8v-7.9c0-0.4-0.4-0.8-0.8-0.8c-0.4,0-0.8,0.4-0.8,0.8v7.9
		C14.9,26.2,15.3,26.6,15.7,26.6z"/>
</g>
</svg>
