<?xml version="1.0" encoding="utf-8"?>
<!-- Generator: Adobe Illustrator 19.2.0, SVG Export Plug-In . SVG Version: 6.00 Build 0)  -->
<svg version="1.1" id="Capa_1" xmlns="http://www.w3.org/2000/svg" xmlns:xlink="http://www.w3.org/1999/xlink" x="0px" y="0px"
	 viewBox="0 0 22.3 20" style="enable-background:new 0 0 22.3 20;" xml:space="preserve">
<style type="text/css">
	.st0{fill:#5C5C5C;}
	.st1{fill:#FFFFFF;}
	.st2{fill:#5C5C5C;stroke:#5C5C5C;stroke-width:0.2;stroke-miterlimit:10;}
	.st3{fill:none;stroke:#5C5C5C;stroke-width:0.4;stroke-miterlimit:10;}
</style>
<path class="st0" d="M22,14.3C22,14.3,22,14.3,22,14.3c-0.1-0.4-0.2-0.6-0.4-0.8c-0.8-1.1-2.7-1.6-4.2-1.9c-0.5-0.3-4.1-2.6-5.8-2.8
	C9.9,8.5,5.8,8.5,3.2,9C3.1,9.1,3,9.2,3,9.4c0,0.1,0.2,0.2,0.3,0.2C4,9.4,4.8,9.3,5.6,9.3c-1,0.9-1.6,1.9-1.6,1.9c0,0.1,0,0.2,0,0.2
	c0,0.1,0.1,0.1,0.2,0.1c1,0.1,12.5,0.5,13.1,0.5c0.7,0.1,1.5,0.3,2.2,0.6c0,0.2,0,0.8,0.4,1.3c0.4,0.5,1.2,0.6,1.6,0.6
	c0.1,0.6,0.2,1.4,0.2,1.9c-0.4,0-1.1,0-2.1,0c0-0.1,0-0.3,0-0.4c0-1.1-0.9-2-2-2s-2,0.9-2,2c0,0.1,0,0.3,0,0.4c-4,0-8.8,0-10.5,0
	c0-0.1,0-0.3,0-0.4c0-1.1-0.9-2-2-2s-2,0.9-2,2c0,0,0,0.1,0,0.1C1,16.2,0.7,16.1,0.6,16c0-0.1-0.2-0.8,0.2-1.9c0,0,0,0,0,0
	c1.1,0,1.8-1.5,1.9-1.7c0-0.1,0-0.2,0-0.2c0-0.1-0.1-0.1-0.2-0.1c-0.2,0-0.4,0-0.6,0c0.4-0.5,1-1.1,1.7-1.7c0.1-0.1,0.1-0.3,0-0.4
	c-0.1-0.1-0.3-0.1-0.4,0c-4.1,3.4-3.2,6.2-3.2,6.3c0,0,0,0,0,0c0.1,0.3,0.7,0.5,1.4,0.6c0.3,0.8,1,1.3,1.9,1.3c0.7,0,1.4-0.4,1.7-1
	c1.6,0,6.7,0,10.9,0c0.3,0.6,1,1,1.7,1c0.8,0,1.4-0.4,1.7-1.1c1.5,0,2.5,0,2.6,0c0.1,0,0.3-0.1,0.3-0.3C22.3,16.7,22.3,15.4,22,14.3
	z M2.1,12.5c-0.3,0.4-0.7,0.9-1.1,1c0.1-0.3,0.3-0.7,0.6-1C1.7,12.5,1.9,12.5,2.1,12.5z M3.3,17.6c-0.8,0-1.4-0.6-1.4-1.4
	c0-0.8,0.6-1.4,1.4-1.4s1.4,0.6,1.4,1.4C4.8,17,4.1,17.6,3.3,17.6z M17.7,17.6c-0.8,0-1.4-0.6-1.4-1.4c0-0.8,0.6-1.4,1.4-1.4
	s1.4,0.6,1.4,1.4C19.2,17,18.5,17.6,17.7,17.6z M11.6,9.3c1.2,0.2,3.5,1.5,4.8,2.3c-1.8-0.1-5.6-0.2-8.5-0.3
	c0.1-0.4,0.2-1.3,0.4-2.1C9.6,9.1,10.9,9.2,11.6,9.3z M6.6,9.2c0.4,0,0.8,0,1.2,0c-0.1,0.6-0.3,1.6-0.4,2.1c-1.2,0-2.1-0.1-2.7-0.1
	C5,10.6,5.7,9.8,6.6,9.2z M20.4,13.6c-0.2-0.2-0.3-0.5-0.3-0.7c0.5,0.2,0.9,0.5,1.1,0.9c0.1,0.1,0.1,0.2,0.2,0.3
	C21,14,20.6,13.9,20.4,13.6z"/>
<g>
	<path class="st1" d="M11.6,9.3c-0.7-0.1-2-0.2-3.3-0.1c-0.2,0.8-0.3,1.7-0.4,2.1c2.9,0.1,6.7,0.2,8.5,0.3
		C15.1,10.8,12.8,9.5,11.6,9.3z"/>
	<path class="st1" d="M4.7,11.1c0.5,0,1.5,0.1,2.7,0.1c0.1-0.5,0.3-1.5,0.4-2.1c-0.4,0-0.8,0-1.2,0C5.7,9.8,5,10.6,4.7,11.1z"/>
</g>
<g>
	<path class="st0" d="M12.3,6.5c-0.1,0-0.2,0-0.2-0.1L11.2,6c0,0-0.1,0-0.1,0l-0.9,0.5c-0.2,0.1-0.4,0.1-0.6,0
		C9.5,6.3,9.4,6.1,9.4,5.9l0.2-1c0,0,0-0.1,0-0.1L8.9,4.1C8.7,4,8.7,3.8,8.7,3.6C8.8,3.4,9,3.3,9.2,3.2l1-0.1c0,0,0.1,0,0.1-0.1
		l0.4-0.9c0.1-0.2,0.3-0.3,0.5-0.3c0,0,0,0,0,0c0.2,0,0.4,0.1,0.5,0.3L12,3c0,0,0,0,0.1,0.1l1,0.1c0.2,0,0.4,0.2,0.4,0.4
		c0.1,0.2,0,0.4-0.1,0.5l-0.7,0.7c0,0,0,0.1,0,0.1l0.2,1c0,0.2,0,0.4-0.2,0.5C12.5,6.5,12.4,6.5,12.3,6.5z M11.1,5.6
		c0.1,0,0.2,0,0.2,0.1l0.9,0.5c0,0,0.1,0,0.1,0c0,0,0,0,0-0.1l-0.2-1c0-0.2,0-0.3,0.2-0.5l0.7-0.7c0,0,0-0.1,0-0.1
		c0,0,0-0.1-0.1-0.1l-1-0.1c-0.2,0-0.3-0.1-0.4-0.3l-0.4-0.9c0,0-0.1-0.1-0.1-0.1l0,0c0,0-0.1,0-0.1,0.1l-0.4,0.9
		c-0.1,0.2-0.2,0.3-0.4,0.3l-1,0.1c-0.1,0-0.1,0-0.1,0.1c0,0,0,0.1,0,0.1l0.7,0.7C10,4.7,10.1,4.8,10,5L9.9,6c0,0.1,0,0.1,0,0.1
		c0,0,0.1,0,0.1,0l0.9-0.5C11,5.6,11,5.6,11.1,5.6z"/>
</g>
</svg>
