<?xml version="1.0" encoding="utf-8"?>
<!-- Generator: Adobe Illustrator 19.2.0, SVG Export Plug-In . SVG Version: 6.00 Build 0)  -->
<svg version="1.1" id="Capa_1" xmlns="http://www.w3.org/2000/svg" xmlns:xlink="http://www.w3.org/1999/xlink" x="0px" y="0px"
	 viewBox="0 0 22.3 20" style="enable-background:new 0 0 22.3 20;" xml:space="preserve">
<style type="text/css">
	.st0{fill:#5C5C5C;}
	.st1{fill:#FFFFFF;}
	.st2{fill:#5C5C5C;stroke:#5C5C5C;stroke-width:0.2;stroke-miterlimit:10;}
	.st3{fill:none;stroke:#5C5C5C;stroke-width:0.4;stroke-miterlimit:10;}
</style>
<g>
	<g>
		<g>
			<path class="st0" d="M18.4,17.3H3.8c-0.6,0-1-0.5-1-1c0-0.6,0.5-1,1-1h14.6c0.6,0,1,0.5,1,1C19.5,16.8,19,17.3,18.4,17.3z
				 M3.8,15.7c-0.3,0-0.5,0.2-0.5,0.5c0,0.3,0.2,0.5,0.5,0.5h14.6c0.3,0,0.5-0.2,0.5-0.5c0-0.3-0.2-0.5-0.5-0.5H3.8z"/>
		</g>
	</g>
	<g>
		<g>
			<path class="st0" d="M18.2,18.3c-0.2,0-0.3-0.1-0.3-0.3v-0.8H4.4v0.8c0,0.2-0.1,0.3-0.3,0.3s-0.3-0.1-0.3-0.3v-1
				c0-0.2,0.1-0.3,0.3-0.3h14.1c0.2,0,0.3,0.1,0.3,0.3v1C18.4,18.2,18.3,18.3,18.2,18.3z"/>
		</g>
	</g>
	<g>
		<g>
			<path class="st0" d="M15.6,6.2h-0.2c-0.2,0-0.3-0.1-0.3-0.3c0-0.2,0.1-0.3,0.2-0.3l0.4-1.3c0.1-0.2,0-0.5-0.2-0.6
				c-0.2-0.2-0.4-0.3-0.6-0.3c-0.2,0-0.3-0.1-0.3-0.3c0-0.3-0.2-0.6-0.4-0.8c-0.2-0.2-0.5-0.3-0.8-0.2l-3.1,0.5
				c-0.3,0.1-0.5,0.2-0.7,0.4C9.6,3.4,9.5,3.7,9.6,3.9L10,5.7c0.1,0,0.2,0.1,0.2,0.3c0,0.2-0.1,0.3-0.3,0.3H9.8
				C9.7,6.2,9.6,6.1,9.6,6L9,4C8.9,3.6,9,3.2,9.3,2.8c0.3-0.4,0.6-0.6,1-0.6l3.1-0.5c0.5-0.1,0.9,0.1,1.3,0.4c0.3,0.3,0.5,0.6,0.5,1
				c0.3,0.1,0.6,0.2,0.8,0.5c0.3,0.3,0.4,0.7,0.3,1.1l-0.5,1.5C15.8,6.2,15.7,6.2,15.6,6.2z"/>
		</g>
	</g>
	<g>
		<g>
			<path class="st0" d="M15.5,6.2h-0.2c-0.4,0-0.7-0.3-0.7-0.7V4.7c-0.9,0.7-2.2,0.9-3.3,0.7l-0.4-0.1c-0.1,0-0.2,0.1-0.2,0.2
				c0,0.4-0.3,0.7-0.7,0.7H9.8C9.7,6.3,9.6,6.2,9.6,6s0.1-0.3,0.3-0.3H10c0.1,0,0.2-0.1,0.2-0.2c0-0.4,0.3-0.7,0.7-0.7l0.5,0.1
				c1,0.2,2.1-0.1,3-0.7c0.2-0.1,0.4-0.1,0.5-0.1c0.2,0.1,0.3,0.3,0.3,0.4v0.9c0,0.1,0.1,0.2,0.2,0.2h0.2c0.2,0,0.3,0.1,0.3,0.3
				C15.8,6.1,15.7,6.2,15.5,6.2z"/>
		</g>
	</g>
	<g>
		<g>
			<path class="st0" d="M18.2,15.7h-11c-0.2,0-0.3-0.1-0.3-0.3s0.1-0.3,0.3-0.3h10.7v-1.7c0-0.8-0.5-1.6-1.3-1.8l-2.5-0.8
				c-0.2-0.1-0.2-0.2-0.2-0.3c0.1-0.2,0.2-0.2,0.3-0.2l2.5,0.8c1,0.3,1.7,1.3,1.7,2.3v1.9C18.4,15.6,18.3,15.7,18.2,15.7z"/>
		</g>
	</g>
	<g>
		<g>
			<path class="st0" d="M18.2,15.7h-2.6c-0.2,0-0.3-0.1-0.3-0.3V15c0-1.5,1.1-2.7,2.6-2.9c0.1,0,0.2,0.1,0.3,0.1
				c0.2,0.4,0.4,0.8,0.4,1.3v1.9C18.4,15.6,18.3,15.7,18.2,15.7z M15.8,15.2h2.1v-1.7c0-0.3-0.1-0.6-0.2-0.8
				c-1.1,0.2-1.9,1.2-1.9,2.3L15.8,15.2L15.8,15.2z"/>
		</g>
	</g>
	<g>
		<g>
			<path class="st0" d="M15.3,8.7h-1.8c-0.2,0-0.3-0.1-0.3-0.3c0-0.2,0.1-0.3,0.3-0.3h1.8c0.6,0,1-0.5,1-1V6.3
				c0-0.2,0.1-0.3,0.3-0.3c0.2,0,0.3,0.1,0.3,0.3v0.9C16.9,8,16.1,8.7,15.3,8.7z"/>
		</g>
	</g>
	<g>
		<g>
			<path class="st0" d="M9.8,7.4H9.3C8.9,7.4,8.5,7,8.5,6.6V6.1c0-0.4,0.4-0.8,0.8-0.8h0.3c0.2,0,0.3,0.1,0.3,0.3S9.7,5.8,9.6,5.8
				H9.3C9.2,5.8,9,5.9,9,6.1v0.5c0,0.2,0.1,0.3,0.3,0.3h0.3V6.3c0-0.2,0.1-0.3,0.3-0.3c0.2,0,0.3,0.1,0.3,0.3v0.8
				C10.1,7.3,10,7.4,9.8,7.4z"/>
		</g>
	</g>
	<g>
		<g>
			<path class="st0" d="M16.1,7.4h-0.5c-0.2,0-0.3-0.1-0.3-0.3V6.3c0-0.2,0.1-0.3,0.3-0.3c0.2,0,0.3,0.1,0.3,0.3v0.5h0.3
				c0.2,0,0.3-0.1,0.3-0.3V6.1c0-0.2-0.1-0.3-0.3-0.3h-0.3c-0.2,0-0.3-0.1-0.3-0.3s0.1-0.3,0.3-0.3h0.3c0.4,0,0.8,0.4,0.8,0.8v0.5
				C16.9,7,16.5,7.4,16.1,7.4z"/>
		</g>
	</g>
	<g>
		<g>
			<path class="st0" d="M12.2,15.7H4.9c-0.6,0-1-0.5-1-1v-0.8c0-0.2,0.1-0.3,0.3-0.3H13c0.2,0,0.3,0.1,0.3,0.3v0.8
				C13.2,15.2,12.7,15.7,12.2,15.7z M4.4,14.1v0.5c0,0.3,0.2,0.5,0.5,0.5h7.3c0.3,0,0.5-0.2,0.5-0.5v-0.5H4.4z"/>
		</g>
	</g>
	<g>
		<g>
			<path class="st0" d="M11.9,14.1H4.1c-0.2,0-0.3-0.1-0.3-0.3V8.7c0-0.2,0.1-0.3,0.3-0.3h7.8c0.2,0,0.3,0.1,0.3,0.3v5.2
				C12.2,14,12.1,14.1,11.9,14.1z M4.4,13.6h7.3V8.9H4.4V13.6z"/>
		</g>
	</g>
	<g>
		<g>
			<path class="st0" d="M12.7,12.2c-0.1,0-0.1,0-0.1,0c0,0-0.4-0.2-0.8-0.5c-0.1-0.1-0.2-0.3-0.1-0.4c0.1-0.1,0.3-0.2,0.4-0.1
				c0.3,0.2,0.5,0.3,0.6,0.4c0.4-0.2,1.3-0.7,1.3-1.3V9.3c0-0.2,0.1-0.3,0.3-0.3c0.2,0,0.3,0.1,0.3,0.3v1.1c0,1-1.5,1.7-1.7,1.8
				C12.7,12.2,12.7,12.2,12.7,12.2z"/>
		</g>
	</g>
	<g>
		<g>
			<path class="st0" d="M12.7,10c-0.3,0-0.6-0.1-0.8-0.1c-0.1-0.1-0.2-0.2-0.2-0.3V8.9h-1.1c-0.1,0-0.2-0.1-0.2-0.1
				c-0.5-0.6-0.7-1.3-0.7-2V6.1c0-0.2,0.1-0.3,0.3-0.3c0.2,0,0.3,0.1,0.3,0.3v0.8c0,0.6,0.2,1.1,0.5,1.6h1.3c0.2,0,0.3,0.1,0.3,0.3
				v0.7c0.2,0.1,0.4,0.1,0.5,0.1c1.5,0,2.6-1.1,2.6-2.6V6.1c0-0.2,0.1-0.3,0.3-0.3c0.2,0,0.3,0.1,0.3,0.3v0.8
				C15.8,8.6,14.4,10,12.7,10z"/>
		</g>
	</g>
	<g>
		<g>
			<circle class="st0" cx="8" cy="11.3" r="0.5"/>
		</g>
	</g>
</g>
</svg>
