<?xml version="1.0" encoding="utf-8"?>
<!-- Generator: Adobe Illustrator 19.2.0, SVG Export Plug-In . SVG Version: 6.00 Build 0)  -->
<svg version="1.1" id="Capa_1" xmlns="http://www.w3.org/2000/svg" xmlns:xlink="http://www.w3.org/1999/xlink" x="0px" y="0px"
	 viewBox="0 0 22.3 20" style="enable-background:new 0 0 22.3 20;" xml:space="preserve">
<style type="text/css">
	.st0{fill:#5C5C5C;}
	.st1{fill:#FFFFFF;}
	.st2{fill:#5C5C5C;stroke:#5C5C5C;stroke-width:0.2;stroke-miterlimit:10;}
	.st3{fill:none;stroke:#5C5C5C;stroke-width:0.4;stroke-miterlimit:10;}
</style>
<g>
	<path class="st0" d="M11.9,11.2c-2.6,0-4.7-2.1-4.7-4.7s2.1-4.7,4.7-4.7s4.7,2.1,4.7,4.7C16.6,9.1,14.5,11.2,11.9,11.2z M11.9,2.5
		c-2.2,0-4,1.8-4,4s1.8,4,4,4s4-1.8,4-4v0C15.9,4.3,14.1,2.5,11.9,2.5z"/>
	<path class="st0" d="M19.3,12.4c-0.4-0.5-1.1-0.6-1.6-0.3l-0.4-0.4c-0.3-0.4-0.9-0.5-1.3-0.2l-0.4,0.2l-0.2-0.3
		c-0.3-0.4-0.9-0.5-1.3-0.2l-2.5,1.6l-2.7-1.1C8,11.4,7,11.5,6.3,12.1l-3.5,2.8c-0.2,0.1-0.2,0.3-0.1,0.5s0.3,0.2,0.5,0.1
		c0,0,0,0,0,0l3.5-2.8c0.5-0.4,1.3-0.5,1.9-0.3l4.8,2c0.3,0.1,0.5,0.5,0.3,0.8c-0.1,0.3-0.5,0.4-0.8,0.3l-3.3-1.3
		c-0.2-0.1-0.4,0-0.4,0.2c-0.1,0.2,0,0.4,0.2,0.4c0,0,0,0,0,0l3.3,1.3c0.2,0.1,0.3,0.1,0.5,0.1c0.7,0,1.3-0.5,1.3-1.2l0,0l3.4-2.2
		c0.3-0.2,0.7-0.1,0.8,0.2c0.2,0.3,0.1,0.6-0.2,0.8L14,17c-0.6,0.4-1.3,0.6-2,0.3l-3.9-1.1c-0.7-0.2-1.5,0-2.1,0.4l-1,0.9
		c-0.1,0.1-0.2,0.3,0,0.5c0.1,0.1,0.2,0.1,0.3,0.1c0.1,0,0.2,0,0.2-0.1l1.1-0.9c0.4-0.3,0.9-0.4,1.5-0.3l3.9,1.1
		c0.9,0.3,1.9,0.1,2.6-0.5l4.6-3.3C19.6,13.9,19.7,13.1,19.3,12.4C19.3,12.5,19.3,12.4,19.3,12.4z M14.4,11.8
		c0.1-0.1,0.3-0.1,0.5,0.1l0.2,0.2l-2,1.3l-0.6-0.3L14.4,11.8z M14.3,14.3c-0.1-0.2-0.3-0.4-0.6-0.5l2.6-1.7
		c0.1-0.1,0.3-0.1,0.5,0.1l0.3,0.4L14.3,14.3z"/>
	<path class="st0" d="M12,5.1c0.3,0,0.7,0.1,1,0.1c0.2,0,0.4-0.1,0.4-0.2c0-0.2-0.1-0.4-0.2-0.4l0,0c-0.3-0.1-0.5-0.1-0.8-0.1V4
		c0-0.2-0.2-0.3-0.3-0.3S11.6,3.8,11.6,4v0.5c-0.9,0.1-1,0.7-1,1c0,0.7,0.7,1,1.2,1.2l0.1,0L12,6.7c0.4,0.2,0.6,0.3,0.6,0.6
		S12.4,7.8,12,7.8h0h-0.1c-0.4,0-0.8-0.1-1.1-0.3c-0.2-0.1-0.4,0-0.4,0.2c-0.1,0.2,0,0.4,0.2,0.4c0,0,0,0,0,0
		c0.3,0.1,0.7,0.2,1.1,0.3v0.5c0,0.2,0.2,0.3,0.3,0.3s0.3-0.2,0.3-0.3V8.4c0.6-0.1,1-0.5,1-1.1c0-0.8-0.7-1.1-1-1.2L12,6
		c-0.3-0.1-0.7-0.3-0.7-0.5C11.3,5.3,11.3,5.1,12,5.1z"/>
</g>
</svg>
