<?xml version="1.0" encoding="utf-8"?>
<!-- Generator: Adobe Illustrator 19.2.0, SVG Export Plug-In . SVG Version: 6.00 Build 0)  -->
<svg version="1.1" id="Capa_1" xmlns="http://www.w3.org/2000/svg" xmlns:xlink="http://www.w3.org/1999/xlink" x="0px" y="0px"
	 viewBox="0 0 55 50" style="enable-background:new 0 0 55 50;" xml:space="preserve">
<style type="text/css">
	.st0{fill:#444444;}
</style>
<path class="st0" d="M49,37.5c-0.4,0-0.8-0.3-0.8-0.7c0-0.4,0.3-0.8,0.7-0.8c0.9,0,1.8-0.1,2.6-0.3c0.6-0.1,1.2-0.6,1.4-1.2
	c0.2-0.8,0.3-1.7,0.4-2.5c0-0.3-0.4-1.2-1.8-1.9c-2.2-1-4.9-1.7-8.2-2.1c-1.6-0.2-3.1-0.2-4.2-0.3c-0.7,0-1.3,0-1.6-0.1
	c-0.6-0.1-1.7-0.7-3.8-2C32.8,25,31.9,24.5,31,24c-0.3-0.1-1-0.3-1.7-0.5l-0.9-0.2c-0.4-0.1-0.7-0.5-0.6-0.9
	c0.1-0.4,0.5-0.7,0.9-0.6c0,0,0,0,0.1,0l0.9,0.2c0.6,0.1,1.3,0.3,1.9,0.5c1,0.5,1.9,1,2.8,1.6c1.1,0.7,2.8,1.8,3.2,1.8
	c0.3,0,0.8,0.1,1.5,0.1c1.1,0,2.7,0.1,4.4,0.3c3.4,0.4,6.2,1.1,8.6,2.3c2,1,2.8,2.4,2.7,3.5c-0.1,0.9-0.2,1.9-0.4,2.8
	c-0.4,1.2-1.4,2-2.6,2.3C50.9,37.4,50,37.5,49,37.5L49,37.5z"/>
<path class="st0" d="M40.8,37.7L40.8,37.7c-1.3,0-2.7-0.1-4.1-0.1c-2.2-0.1-4.2-0.2-5.2-0.2c-1.1,0-4.1,0-7.1,0.1
	c-0.4,0-0.8-0.3-0.8-0.8c0-0.4,0.3-0.8,0.8-0.8c3,0,6-0.1,7.1-0.1c1.1,0,3.1,0.1,5.3,0.2c1.4,0.1,2.8,0.1,4.1,0.1
	c0.4,0,0.8,0.4,0.8,0.8S41.3,37.7,40.8,37.7L40.8,37.7z"/>
<path class="st0" d="M44.9,39.8c-2.7,0-4.9-2.2-4.9-4.9c0-2.7,2.2-4.9,4.9-4.9s4.9,2.2,4.9,4.9l0,0C49.8,37.6,47.6,39.8,44.9,39.8z
	 M44.9,31.5c-1.9,0-3.4,1.5-3.4,3.4c0,1.9,1.5,3.4,3.4,3.4c1.9,0,3.4-1.5,3.4-3.4l0,0C48.3,33,46.8,31.5,44.9,31.5
	C44.9,31.5,44.9,31.5,44.9,31.5L44.9,31.5z"/>
<path class="st0" d="M21.7,49.5H11c-0.4,0-0.8-0.3-0.8-0.8V20.4c0-0.4,0.3-0.8,0.8-0.8c0.4,0,0.8,0.3,0.8,0.8v27.5h9.2V20.4
	c0-0.4,0.3-0.8,0.8-0.8c0.4,0,0.8,0.3,0.8,0.8v28.3C22.4,49.1,22.1,49.5,21.7,49.5z"/>
<path class="st0" d="M16.3,49.5c-0.4,0-0.8-0.3-0.8-0.8V30.4c0-0.4,0.3-0.8,0.8-0.8s0.8,0.3,0.8,0.8v18.3
	C17.1,49.1,16.7,49.5,16.3,49.5z"/>
<path class="st0" d="M25.9,33.1c-0.4,0-0.8-0.3-0.8-0.8V18.6c0-2.4-1.9-4.3-4.3-4.3h-9.1c-2.4,0-4.3,1.9-4.3,4.3v13.7
	c0,0.4-0.3,0.8-0.8,0.8c-0.4,0-0.8-0.3-0.8-0.8V18.6c0-3.2,2.6-5.8,5.8-5.8h9.1c3.2,0,5.8,2.6,5.8,5.8v13.7
	C26.7,32.7,26.3,33.1,25.9,33.1z"/>
<path class="st0" d="M16.3,14.3c-3.8,0-6.9-3.1-6.9-6.9c0-3.8,3.1-6.9,6.9-6.9c3.8,0,6.9,3.1,6.9,6.9v0
	C23.2,11.2,20.1,14.3,16.3,14.3z M16.3,2.1c-3,0-5.4,2.4-5.4,5.4s2.4,5.4,5.4,5.4s5.4-2.4,5.4-5.4l0,0C21.7,4.5,19.3,2.1,16.3,2.1z"
	/>
<path class="st0" d="M16.3,18.9c-0.3,0-0.5-0.1-0.6-0.3l-3.3-4.8c-0.2-0.4-0.1-0.8,0.2-1.1c0.3-0.2,0.8-0.1,1.1,0.2l2.7,3.9l2.7-3.9
	c0.2-0.3,0.7-0.4,1.1-0.2c0.3,0.2,0.4,0.7,0.2,1.1l-3.3,4.8C16.8,18.8,16.6,18.9,16.3,18.9z"/>
<path class="st0" d="M16.3,5.4c-2,0-3.8-0.5-5.1-1.3C10.9,3.8,10.8,3.4,11,3c0.2-0.4,0.7-0.4,1.1-0.2c1,0.7,2.6,1.1,4.2,1.1
	s3.2-0.4,4.2-1.1c0.4-0.2,0.8-0.1,1.1,0.2c0.2,0.4,0.1,0.8-0.2,1.1C20.1,4.9,18.3,5.4,16.3,5.4z"/>
<path class="st0" d="M39.7,27.7H28.6c-0.4,0-0.8-0.3-0.8-0.8s0.3-0.8,0.8-0.8h11.1c0.4,0,0.8,0.3,0.8,0.8S40.1,27.7,39.7,27.7z"/>
</svg>
