<?xml version="1.0" encoding="utf-8"?>
<!-- Generator: Adobe Illustrator 19.2.0, SVG Export Plug-In . SVG Version: 6.00 Build 0)  -->
<svg version="1.1" id="Capa_1" xmlns="http://www.w3.org/2000/svg" xmlns:xlink="http://www.w3.org/1999/xlink" x="0px" y="0px"
	 viewBox="0 0 38.6 39.1" style="enable-background:new 0 0 38.6 39.1;" xml:space="preserve">
<style type="text/css">
	.st0{fill:#8E8E8E;}
</style>
<g>
	<g>
		<path class="st0" d="M19.3,38.6c-10.5,0-19-8.5-19-19s8.5-19,19-19s19,8.5,19,19S29.8,38.6,19.3,38.6z M19.3,2.9
			c-9.2,0-16.7,7.5-16.7,16.7s7.5,16.7,16.7,16.7S36,28.8,36,19.6S28.5,2.9,19.3,2.9z"/>
	</g>
</g>
<g>
	<path class="st0" d="M29.7,15.1L18.3,26.5c-0.3,0.3-0.8,0.5-1.3,0.5v0.8l0-0.8c-0.5,0-1-0.2-1.3-0.6l-5.8-6c-0.7-0.7-0.7-1.9,0-2.6
		c0.3-0.3,0.8-0.5,1.3-0.5c0.5,0,1,0.2,1.3,0.6l4.4,4.6l10.1-10.1c0.4-0.4,0.8-0.5,1.3-0.5c0.5,0,1,0.2,1.3,0.5
		C30.4,13.2,30.4,14.4,29.7,15.1z"/>
</g>
</svg>
