<?xml version="1.0" encoding="utf-8"?>
<!-- Generator: Adobe Illustrator 19.2.0, SVG Export Plug-In . SVG Version: 6.00 Build 0)  -->
<svg version="1.1" id="Capa_1" xmlns="http://www.w3.org/2000/svg" xmlns:xlink="http://www.w3.org/1999/xlink" x="0px" y="0px"
	 viewBox="0 0 55 50" style="enable-background:new 0 0 55 50;" xml:space="preserve">
<style type="text/css">
	.st0{fill:#444444;}
</style>
<g>
	<path class="st0" d="M49.9,5.8H5.1c-2.4,0-4.4,2-4.4,4.4v29.6c0,2.4,2,4.4,4.4,4.4h44.7c2.4,0,4.4-2,4.4-4.4V10.2
		C54.3,7.8,52.3,5.8,49.9,5.8z M52.5,39.8c0,1.4-1.2,2.6-2.6,2.6H5.1c-1.4,0-2.6-1.2-2.6-2.6V10.2c0-1.4,1.2-2.6,2.6-2.6h44.7
		c1.4,0,2.6,1.2,2.6,2.6V39.8z"/>
	<path class="st0" d="M32.6,38.4H22.4c-0.5,0-0.9,0.4-0.9,0.9c0,0.5,0.4,0.9,0.9,0.9h10.2c0.5,0,0.9-0.4,0.9-0.9
		C33.5,38.8,33.1,38.4,32.6,38.4z"/>
	<path class="st0" d="M46,10.9H9.1c-2.2,0-3.6,1.4-3.6,3.6v18c0,2.2,1.4,3.6,3.5,3.6H46c2.2,0,3.5-1.4,3.5-3.6V14.5
		C49.5,12.2,48.1,10.9,46,10.9z M47.7,14.5v10.1l-10.3-2.6l2.2-9.3H46C47.1,12.7,47.7,13.2,47.7,14.5z M9.1,12.7l18.5,0l10.3,0
		l-2.1,8.8l-6.2-1.6l-1.1-2.1c-0.2-0.3-0.5-0.5-0.8-0.5c-0.3,0.1-0.6,0.2-0.8,0.5L26.1,19L7.3,14.2C7.4,13.2,7.9,12.7,9.1,12.7z
		 M27.6,20.1l4.9,9.2l-4.6-2.1c-0.1-0.1-0.3-0.1-0.4-0.1s-0.3,0-0.4,0.1l-4.5,2.1L27.6,20.1z M7.3,32.5V16.1l6.4,1.6L9.4,34.3H9.1
		C7.8,34.3,7.3,33.8,7.3,32.5z M46,34.3H11.3l4.1-16.2l9.8,2.5l-5.6,10.2c-0.2,0.3-0.1,0.8,0.1,1c0.3,0.3,0.7,0.4,1,0.2l6.6-3.1
		l6.6,3.1c0.1,0.1,0.3,0.1,0.4,0.1c0,0,0,0,0,0c0.5,0,0.9-0.4,0.9-0.9c0-0.2-0.1-0.5-0.3-0.6l-4.5-8.6l17,4.4v6.1
		C47.7,33.8,47.1,34.3,46,34.3z"/>
</g>
</svg>
