<?xml version="1.0" encoding="utf-8"?>
<!-- Generator: Adobe Illustrator 19.2.0, SVG Export Plug-In . SVG Version: 6.00 Build 0)  -->
<svg version="1.1" id="Capa_1" xmlns="http://www.w3.org/2000/svg" xmlns:xlink="http://www.w3.org/1999/xlink" x="0px" y="0px"
	 viewBox="0 0 27 30" style="enable-background:new 0 0 27 30;" xml:space="preserve">
<style type="text/css">
	.st0{fill:#606060;}
</style>
<g>
	<path class="st0" d="M9.9,6.1H8.7v-1c0-1.2,1-2.2,2.2-2.2H16c1.2,0,2.2,1,2.2,2.2v1h-1.2v-1c0-0.6-0.5-1.1-1.1-1.1H11
		c-0.6,0-1.1,0.5-1.1,1.1V6.1z"/>
	<path class="st0" d="M24.7,27.1H2.3c-1.2,0-2.2-1-2.2-2.2V10.5c0-1.2,1-2.2,2.2-2.2h22.4c1.2,0,2.2,1,2.2,2.2v14.3
		C27,26.1,26,27.1,24.7,27.1z M2.3,9.4c-0.6,0-1.1,0.5-1.1,1.1v14.3c0,0.6,0.5,1.1,1.1,1.1h22.4c0.6,0,1.1-0.5,1.1-1.1V10.5
		c0-0.6-0.5-1.1-1.1-1.1H2.3z"/>
</g>
</svg>
