<?xml version="1.0" encoding="utf-8"?>
<!-- Generator: Adobe Illustrator 19.2.0, SVG Export Plug-In . SVG Version: 6.00 Build 0)  -->
<svg version="1.1" id="Capa_1" xmlns="http://www.w3.org/2000/svg" xmlns:xlink="http://www.w3.org/1999/xlink" x="0px" y="0px"
	 viewBox="0 0 27 30" style="enable-background:new 0 0 27 30;" xml:space="preserve">
<style type="text/css">
	.st0{fill:#606060;}
</style>
<g>
	<g>
		<path class="st0" d="M26,29.6c-0.4,0-0.7-0.3-0.7-0.6l-0.6-7.2c-0.3-2.9-1.8-3.3-1.9-3.3c-0.1,0-2.1-0.6-4.3-1
			c-0.7,2.4-2.5,3.9-4.9,3.9c-2.3,0-4.2-1.5-4.9-3.9c-2.2,0.4-4.3,0.9-4.3,0.9c-0.1,0-1.7,0.4-2.1,3.4L1.7,29c0,0.4-0.3,0.7-0.7,0.6
			c-0.4,0-0.7-0.4-0.6-0.7l0.5-7.2c0.5-4,3.1-4.5,3.2-4.6c0.1,0,2.5-0.6,4.9-1.1c0.1,0,0.3,0,0.4,0c0.2,0.1,0.4,0.3,0.4,0.5
			c0.3,1.7,1.5,3.5,3.8,3.5c2,0,3.4-1.3,3.7-3.4c0-0.2,0.2-0.4,0.4-0.5c0.2-0.1,0.3-0.1,0.5,0c2.4,0.4,4.9,1,5,1.1
			c0.1,0,2.6,0.5,3,4.5l0.6,7.2C26.7,29.3,26.4,29.6,26,29.6C26,29.6,26,29.6,26,29.6z"/>
	</g>
	<path class="st0" d="M13.5,16.1c-2.7,0-5.4-3.6-5.8-7.8C7.5,5.5,7.6,3.4,8.9,1.9c1-1.1,2.5-1.6,4.6-1.6s3.6,0.5,4.6,1.6
		c1.3,1.5,1.4,3.6,1.2,6.4C18.9,12.5,16.2,16.1,13.5,16.1z M13.5,1.7c-1.7,0-2.9,0.4-3.6,1.1c-1,1.1-1,3.2-0.8,5.3
		c0.3,3.8,2.6,6.6,4.4,6.6s4-2.8,4.4-6.6c0.2-2.1,0.2-4.2-0.8-5.3C16.4,2.1,15.2,1.7,13.5,1.7z"/>
	<path class="st0" d="M11.7,7.2c-0.4,0-0.7,0-0.7,0c-0.4-0.1-0.6-0.4-0.6-0.8c0.1-0.4,0.4-0.6,0.8-0.6c0.1,0,2.8,0.3,3.6-1.6
		c0.1-0.2,0.3-0.4,0.6-0.4c0.3,0,0.5,0.1,0.6,0.4C16.2,4.6,17,5.8,18,5.8c0.4,0,0.7,0.3,0.7,0.7c0,0.4-0.3,0.7-0.7,0.7
		c-1.2,0-2.1-0.8-2.6-1.5C14.3,7,12.6,7.2,11.7,7.2z"/>
</g>
</svg>
