<?xml version="1.0" encoding="utf-8"?>
<!-- Generator: Adobe Illustrator 19.2.0, SVG Export Plug-In . SVG Version: 6.00 Build 0)  -->
<svg version="1.1" id="Capa_1" xmlns="http://www.w3.org/2000/svg" xmlns:xlink="http://www.w3.org/1999/xlink" x="0px" y="0px"
	 viewBox="0 0 27 30" style="enable-background:new 0 0 27 30;" xml:space="preserve">
<style type="text/css">
	.st0{fill:#606060;}
</style>
<g>
	<g>
		<path class="st0" d="M5.8,25.4h-1c-1,0-1.7-0.8-1.7-1.7v-1.3h1v1.3c0,0.4,0.3,0.7,0.7,0.7h1c0.4,0,0.7-0.3,0.7-0.7v-1.3h1v1.3
			C7.5,24.6,6.8,25.4,5.8,25.4z"/>
		<path class="st0" d="M22.1,25.4h-1c-1,0-1.7-0.8-1.7-1.7v-1.3h1v1.3c0,0.4,0.3,0.7,0.7,0.7h1c0.4,0,0.7-0.3,0.7-0.7v-1.3h1v1.3
			C23.9,24.6,23.1,25.4,22.1,25.4z"/>
	</g>
	<path class="st0" d="M3.7,21.3c-1.3,0-1.9-1.4-2-2.2c-0.1-0.3-0.6-2.8,0.4-5.4c0,0,0-0.1,0.1-0.1c0.5-0.7,1.6-2.1,1.8-2.4l1.7-4.1
		c0.6-1.5,1.4-1.8,1.5-1.8c3-0.7,6.1-0.7,6.3-0.7h0.1c0.1,0,3.3,0,6.2,0.7c0.1,0,1,0.4,1.6,1.8l1.7,4.1c0.2,0.3,1.3,1.7,1.8,2.4
		c0,0,0,0.1,0.1,0.1c1,2.6,0.4,5.1,0.4,5.4c-0.1,0.8-0.7,2.2-2.2,2.2H3.8C3.8,21.3,3.7,21.3,3.7,21.3z M3,14.1
		c-0.9,2.4-0.3,4.7-0.3,4.8c0,0,0,0,0,0.1c0,0.1,0.2,1.4,1.1,1.3l19.4,0c0,0,0,0,0,0c0.9,0.1,1.1-1.3,1.1-1.3c0,0,0,0,0-0.1
		c0,0,0.6-2.4-0.3-4.8c-0.5-0.8-1.8-2.4-1.8-2.4c0,0,0-0.1-0.1-0.1l-1.8-4.1c-0.4-0.9-0.8-1.2-0.9-1.2c-2.8-0.7-5.9-0.7-5.9-0.7
		h-0.1c0,0-3.2,0-6,0.7c-0.1,0-0.5,0.3-0.9,1.2l-1.8,4.1c0,0,0,0.1-0.1,0.1C4.7,11.8,3.5,13.3,3,14.1z"/>
	<rect x="4.7" y="10.7" class="st0" width="17.7" height="1"/>
	<g>
		<path class="st0" d="M6,16.9h-4v-1H6c0,0,0,0,0,0c0,0,0-0.1,0-0.1c-0.3-1.7-3.1-1.9-3.2-1.9l0.1-1c0.2,0,3.7,0.3,4.1,2.8
			c0,0.1,0,0.5-0.2,0.8C6.7,16.7,6.5,16.9,6,16.9C6.1,16.9,6.1,16.9,6,16.9z"/>
		<path class="st0" d="M24.9,16.9h-4c0,0,0,0-0.1,0c-0.4,0-0.6-0.2-0.7-0.4c-0.3-0.3-0.2-0.7-0.2-0.8c0.4-2.6,4-2.8,4.1-2.8l0.1,1
			c0,0-2.9,0.2-3.2,1.9c0,0,0,0,0,0.1c0,0,0,0,0,0h3.9V16.9z"/>
	</g>
	<path class="st0" d="M18.3,19h-1v-1.7H9.7V19h-1v-2.2c0-0.3,0.2-0.5,0.5-0.5h8.6c0.3,0,0.5,0.2,0.5,0.5V19z"/>
	<g>
		<path class="st0" d="M2,10.8c-0.2,0-0.4,0-0.5-0.1l-0.4-0.2c-0.5-0.2-0.8-0.8-0.6-1.2C0.7,8.9,1.3,8.7,1.8,9l0.4,0.2
			c0.3,0.1,0.5,0.4,0.6,0.6c0.1,0.2,0.1,0.4,0,0.6C2.7,10.6,2.4,10.8,2,10.8z"/>
		<path class="st0" d="M25,10.8c-0.4,0-0.6-0.2-0.8-0.4c-0.1-0.2-0.1-0.4,0-0.6c0.1-0.3,0.3-0.5,0.6-0.6L25.2,9
			c0.5-0.2,1.1-0.1,1.3,0.3c0.2,0.4-0.1,0.9-0.6,1.2l-0.4,0.2C25.3,10.7,25.1,10.8,25,10.8z"/>
	</g>
</g>
</svg>
