<?xml version="1.0" encoding="utf-8"?>
<!-- Generator: Adobe Illustrator 19.2.0, SVG Export Plug-In . SVG Version: 6.00 Build 0)  -->
<svg version="1.1" id="Capa_1" xmlns="http://www.w3.org/2000/svg" xmlns:xlink="http://www.w3.org/1999/xlink" x="0px" y="0px"
	 viewBox="0 0 30 18" style="enable-background:new 0 0 30 18;" xml:space="preserve">
<style type="text/css">
	.st0{fill:#030104;}
</style>
<g>
	<path class="st0" d="M28,5.5l-3.2-3c-0.6-0.6-1.4-0.9-2.3-0.9h-7.7c-0.9,0-1.7,0.3-2.3,0.9L8.1,6.6l-4,0.5c-2,0.3-3.5,2-3.5,4v2
		c0,0.3,0.3,0.6,0.6,0.6h2.2c0.3,1.5,1.7,2.7,3.3,2.7s3-1.2,3.3-2.7h10.3c0.3,1.5,1.7,2.7,3.3,2.7c1.6,0,3-1.2,3.3-2.7h2
		c0.3,0,0.6-0.3,0.6-0.6V9C29.5,7.6,28.9,6.4,28,5.5z M23.9,3.3l3.2,3c0.1,0.1,0.1,0.1,0.2,0.2h-7l-0.4-3.8h2.6
		C23,2.8,23.5,3,23.9,3.3z M19.1,6.6h-1.6l0.4-3.8h0.8L19.1,6.6z M13.2,3.4c0.4-0.4,0.9-0.6,1.5-0.6h2l-0.4,3.8H9.8L13.2,3.4z
		 M6.7,15.2c-1.2,0-2.1-1-2.1-2.1s1-2.1,2.1-2.1s2.1,1,2.1,2.1S7.8,15.2,6.7,15.2z M23.5,15.2c-1.2,0-2.1-1-2.1-2.1s1-2.1,2.1-2.1
		c1.2,0,2.1,1,2.1,2.1S24.7,15.2,23.5,15.2z M28.2,12.6h-1.4c-0.3-1.6-1.6-2.8-3.3-2.8s-3,1.2-3.3,2.8H10C9.7,11,8.3,9.8,6.7,9.8
		s-3,1.2-3.3,2.8H1.8v-1.4c0-1.4,1.1-2.6,2.5-2.8l4-0.5c0,0,0.1,0,0.1,0H28c0.1,0.4,0.2,0.8,0.2,1.2L28.2,12.6L28.2,12.6z"/>
</g>
</svg>
