<?xml version="1.0" encoding="utf-8"?>
<!-- Generator: Adobe Illustrator 19.2.0, SVG Export Plug-In . SVG Version: 6.00 Build 0)  -->
<svg version="1.1" id="Capa_1" xmlns="http://www.w3.org/2000/svg" xmlns:xlink="http://www.w3.org/1999/xlink" x="0px" y="0px"
	 viewBox="0 0 100 50" style="enable-background:new 0 0 100 50;" xml:space="preserve">
<style type="text/css">
	.st0{fill:#FFFFFF;}
</style>
<g>
	<path class="st0" d="M-74.8,73.6v13.9c0,1.1,0.9,2,2,2h6.7c1,5,5.5,8.8,10.8,8.8s9.8-3.8,10.8-8.8h34c1,5,5.5,8.8,10.8,8.8
		s9.8-3.8,10.8-8.8h7.4c1.1,0,2-0.9,2-2v-6.7c0-6.7-5-12.4-11.7-13.3l-13.1-1.7l-14.2-13.5c-2.1-2-4.8-3.1-7.7-3.1h-25.5
		c-2.8,0-5.6,1.1-7.6,3l-10.6,10C-73,65.1-74.8,69.3-74.8,73.6z M-51.6,53.2h8.4l-1.4,12.6h-23.2c0.2-0.2,0.4-0.5,0.7-0.7l10.6-10
		C-55.2,53.9-53.4,53.2-51.6,53.2z M-39.2,53.2h2.5l1.4,12.6h-5.3L-39.2,53.2z M-10,65.8h-21.2l-1.4-12.6h6.5c1.8,0,3.6,0.7,4.9,2
		L-10,65.8z M-6.6,87.3c0-3.9,3.2-7,7-7s7,3.2,7,7c0,3.9-3.2,7-7,7C-3.5,94.3-6.6,91.2-6.6,87.3z M-62.3,87.3c0-3.9,3.2-7,7-7
		c3.9,0,7,3.2,7,7c0,3.9-3.2,7-7,7C-59.1,94.3-62.3,91.2-62.3,87.3z M-70.8,85.5V73.6c0-1.3,0.2-2.6,0.6-3.8h64.8
		c0.2,0,0.3,0,0.5-0.1l13.2,1.7c4.7,0.6,8.2,4.6,8.2,9.3v4.7h-5.3c-0.9-5.2-5.4-9.2-10.9-9.2s-10,4-10.9,9.2h-33.9
		c-0.9-5.2-5.4-9.2-10.9-9.2s-10,4-10.9,9.2H-70.8L-70.8,85.5z"/>
</g>
<g>
	<path class="st0" d="M85.8,39.2l-1.1-13.2c-0.1-1-0.3-2.2-0.6-3.4c-0.3-1.2-0.6-2.4-1-3.3L77.4,4.8c-0.5-1.2-1.4-2.2-2.4-2.9
		c-1-0.7-2.3-1.2-3.6-1.2H18.5c-2.7,0-4.9,2.2-4.9,4.9l0,33.6c0,2.7,2.2,4.9,4.9,4.9h4.8c1,3.3,4.2,5.7,7.8,5.7s6.8-2.4,7.8-5.7
		h21.8c1,3.3,4.2,5.7,7.8,5.7s6.8-2.4,7.8-5.7h4.8c1.3,0,2.5-0.5,3.3-1.4c0.8-0.8,1.4-2,1.4-3.3C85.8,39.5,85.8,39.3,85.8,39.2z
		 M80.3,21.1H66.1c-0.2,0-0.3-0.1-0.5-0.2s-0.2-0.3-0.2-0.5l-0.6-9v0l0,0c0-0.2,0.1-0.3,0.1-0.4c0.1-0.1,0.2-0.1,0.4-0.1h10.9
		l3.9,9.7C80.1,20.7,80.2,20.9,80.3,21.1z M31.1,46.7c-2.7,0-4.9-2.2-4.9-4.9s2.2-4.9,4.9-4.9s4.9,2.2,4.9,4.9S33.8,46.7,31.1,46.7z
		 M68.6,46.7c-2.7,0-4.9-2.2-4.9-4.9s2.2-4.9,4.9-4.9c2.7,0,4.9,2.2,4.9,4.9S71.3,46.7,68.6,46.7z M82.2,40.6
		c-0.2,0.2-0.6,0.4-1,0.4h-4.4c-0.4-4.1-3.9-7.4-8.2-7.4c-4.3,0-7.8,3.2-8.2,7.4H39.3c-0.4-4.1-3.9-7.4-8.2-7.4s-7.8,3.2-8.2,7.4
		h-4.4c-0.5,0-0.9-0.2-1.2-0.5c-0.3-0.3-0.5-0.7-0.5-1.2l0-12.1h29c0.6,0,1-0.5,1-1s-0.5-1-1-1h-29l0-19.5c0-0.5,0.2-0.9,0.5-1.2
		C17.7,4.2,18.1,4,18.5,4h52.8c0.5,0,1.2,0.2,1.8,0.6c0.6,0.4,1,0.9,1.2,1.4l1.1,2.7H65.3c-0.7,0-1.4,0.3-1.8,0.7
		c-0.5,0.5-0.7,1.1-0.7,1.8l0.6,9.2c0.1,0.7,0.4,1.4,0.9,1.8c0.5,0.5,1.2,0.8,1.9,0.8h14.8c0,0.1,0,0.2,0.1,0.2
		c0.3,1.1,0.4,2.2,0.5,3l1.1,13.3C82.6,40,82.4,40.3,82.2,40.6z"/>
	<path class="st0" d="M70.8,12.8c-0.6-0.3-1.3-0.1-1.7,0.6l-1.6,3.3c-0.3,0.6-0.1,1.3,0.6,1.7c0.6,0.3,1.3,0.1,1.7-0.6l1.6-3.3
		C71.6,13.8,71.4,13.1,70.8,12.8z"/>
</g>
</svg>
