<?xml version="1.0" encoding="utf-8"?>
<!-- Generator: Adobe Illustrator 19.2.0, SVG Export Plug-In . SVG Version: 6.00 Build 0)  -->
<svg version="1.1" id="Capa_1" xmlns="http://www.w3.org/2000/svg" xmlns:xlink="http://www.w3.org/1999/xlink" x="0px" y="0px"
	 viewBox="0 0 100 100" style="enable-background:new 0 0 100 100;" xml:space="preserve">
<style type="text/css">
	.st0{fill:#FFFFFF;}
</style>
<g>
	<g>
		<path class="st0" d="M50,98.9c-13.1,0-25.4-5.1-34.6-14.4C6.1,75.3,1,63,1,49.9s5.1-25.4,14.4-34.6C24.6,6,36.9,0.9,50,0.9
			S75.4,6,84.6,15.3C93.9,24.5,99,36.8,99,49.9s-5.1,25.4-14.4,34.6C75.4,93.8,63.1,98.9,50,98.9z M50,3C37.5,3,25.7,7.8,16.8,16.7
			C7.9,25.6,3.1,37.4,3.1,49.9s4.9,24.3,13.7,33.2C25.7,92,37.5,96.8,50,96.8S74.3,92,83.2,83.1c8.9-8.9,13.7-20.7,13.7-33.2
			s-4.9-24.3-13.7-33.2C74.3,7.8,62.5,3,50,3z"/>
	</g>
	<g>
		<g>
			<path class="st0" d="M75.5,59.7l-0.8-9.3c-0.1-0.7-0.2-1.6-0.4-2.4c-0.2-0.9-0.4-1.7-0.7-2.4l-4.1-10.2c-0.4-0.9-1-1.5-1.7-2.1
				c-0.7-0.5-1.6-0.8-2.5-0.8H27.9c-1.9,0-3.5,1.6-3.5,3.5l0,23.8c0,1.9,1.6,3.5,3.5,3.5h3.4c0.7,2.4,2.9,4.1,5.5,4.1
				c2.6,0,4.8-1.7,5.5-4.1h15.4c0.7,2.4,2.9,4.1,5.5,4.1s4.8-1.7,5.5-4.1h3.4c0.9,0,1.7-0.4,2.3-1c0.6-0.6,1-1.4,1-2.3
				C75.6,59.9,75.5,59.8,75.5,59.7z M71.6,46.9h-10c-0.1,0-0.2-0.1-0.3-0.1c-0.1-0.1-0.2-0.2-0.2-0.3L60.7,40v0l0,0
				c0-0.1,0-0.2,0.1-0.3c0.1-0.1,0.1-0.1,0.3-0.1h7.7l2.7,6.8C71.5,46.6,71.6,46.7,71.6,46.9z M36.8,65c-1.9,0-3.5-1.6-3.5-3.5
				s1.6-3.5,3.5-3.5c1.9,0,3.5,1.6,3.5,3.5S38.8,65,36.8,65z M63.3,65c-1.9,0-3.5-1.6-3.5-3.5s1.6-3.5,3.5-3.5
				c1.9,0,3.5,1.6,3.5,3.5S65.3,65,63.3,65z M73,60.7c-0.2,0.2-0.4,0.3-0.7,0.3h-3.1c-0.3-2.9-2.8-5.2-5.8-5.2s-5.5,2.3-5.8,5.2
				H42.6c-0.3-2.9-2.8-5.2-5.8-5.2s-5.5,2.3-5.8,5.2h-3.1c-0.3,0-0.6-0.1-0.8-0.3c-0.2-0.2-0.3-0.5-0.3-0.8l0-8.6h20.5
				c0.4,0,0.7-0.3,0.7-0.7c0-0.4-0.3-0.7-0.7-0.7H26.8l0-13.8c0-0.3,0.1-0.6,0.3-0.8c0.2-0.2,0.5-0.3,0.8-0.3h37.4
				c0.3,0,0.8,0.2,1.2,0.4c0.4,0.3,0.7,0.7,0.9,1l0.8,1.9H61c-0.5,0-1,0.2-1.3,0.5c-0.3,0.3-0.5,0.8-0.5,1.3l0.4,6.5
				c0,0.5,0.3,1,0.6,1.3c0.3,0.3,0.8,0.5,1.3,0.5H72c0,0.1,0,0.1,0,0.2c0.2,0.8,0.3,1.6,0.4,2.1l0.8,9.4
				C73.2,60.3,73.1,60.5,73,60.7z"/>
		</g>
		<g>
			<path class="st0" d="M64.9,41c-0.4-0.2-1,0-1.2,0.4l-1.2,2.3c-0.2,0.4,0,1,0.4,1.2c0.4,0.2,1,0,1.2-0.4l1.2-2.3
				C65.5,41.7,65.3,41.2,64.9,41z"/>
		</g>
	</g>
</g>
</svg>
