<?xml version="1.0" encoding="utf-8"?>
<!-- Generator: Adobe Illustrator 19.2.0, SVG Export Plug-In . SVG Version: 6.00 Build 0)  -->
<svg version="1.1" id="Capa_1" xmlns="http://www.w3.org/2000/svg" xmlns:xlink="http://www.w3.org/1999/xlink" x="0px" y="0px"
	 viewBox="0 0 18 18" style="enable-background:new 0 0 18 18;" xml:space="preserve">
<style type="text/css">
	.st0{fill:#FFFFFF;}
</style>
<g>
	<path class="st0" d="M12,1.2H6C3.3,1.2,1.2,3.3,1.2,6v6c0,2.7,2.2,4.8,4.8,4.8h6c2.7,0,4.8-2.2,4.8-4.8V6C16.8,3.3,14.7,1.2,12,1.2
		z M15.3,11.4c0,2.1-1.7,3.9-3.9,3.9H6.6c-2.1,0-3.9-1.7-3.9-3.9V6.6c0-2.1,1.7-3.9,3.9-3.9h4.8c2.1,0,3.9,1.7,3.9,3.9V11.4z"/>
	<path class="st0" d="M9.2,4.9C6.9,4.9,5.1,6.8,5.1,9c0,2.3,1.8,4.1,4.1,4.1c2.3,0,4.1-1.8,4.1-4.1C13.3,6.8,11.5,4.9,9.2,4.9z
		 M9.2,11.5c-1.4,0-2.5-1.1-2.5-2.5c0-1.4,1.1-2.5,2.5-2.5c1.4,0,2.5,1.1,2.5,2.5C11.7,10.4,10.6,11.5,9.2,11.5z"/>
	<circle class="st0" cx="13" cy="4.9" r="1"/>
</g>
</svg>
