<?xml version="1.0" encoding="utf-8"?>
<!-- Generator: Adobe Illustrator 19.2.0, SVG Export Plug-In . SVG Version: 6.00 Build 0)  -->
<svg version="1.1" id="Capa_1" xmlns="http://www.w3.org/2000/svg" xmlns:xlink="http://www.w3.org/1999/xlink" x="0px" y="0px"
	 viewBox="0 0 1024 1003.8" style="enable-background:new 0 0 1024 1003.8;" xml:space="preserve">
<style type="text/css">
	.st0{fill:#59FF12;}
</style>
<g>
	<path class="st0" d="M432.4,716.2c-18.7,0.1-36.7-7.4-49.9-20.7l-170-170c-12-12-12-31.5,0-43.5c12-12,31.5-12,43.5,0l170.2,170.2
		c3.5,3.5,9.1,3.6,12.7,0.1c0,0,0.1-0.1,0.1-0.1l329-329.7c12-12,31.5-12,43.5,0c12,12,12,31.5,0,43.5L482,695.4
		C468.9,708.7,451,716.2,432.4,716.2z"/>
	<path class="st0" d="M512,993.4c-271.5,0-491.5-220.1-491.5-491.5S240.5,10.4,512,10.4c271.4,0,491.4,219.9,491.5,491.3
		C1003.4,773.1,783.4,993.1,512,993.4z M512,71.8c-237.5,0-430.1,192.6-430.1,430.1S274.5,932,512,932s430.1-192.6,430.1-430.1
		c0-0.1,0-0.2,0-0.3C941.7,264.3,749.3,72.1,512,71.8L512,71.8z"/>
</g>
</svg>
