<?xml version="1.0" encoding="utf-8"?>
<!-- Generator: Adobe Illustrator 19.2.0, SVG Export Plug-In . SVG Version: 6.00 Build 0)  -->
<svg version="1.1" id="Capa_1" xmlns="http://www.w3.org/2000/svg" xmlns:xlink="http://www.w3.org/1999/xlink" x="0px" y="0px"
	 viewBox="0 0 22.3 20" style="enable-background:new 0 0 22.3 20;" xml:space="preserve">
<style type="text/css">
	.st0{fill:#5C5C5C;}
	.st1{fill:#FFFFFF;}
	.st2{fill:#5C5C5C;stroke:#5C5C5C;stroke-width:0.2;stroke-miterlimit:10;}
	.st3{fill:none;stroke:#5C5C5C;stroke-width:0.4;stroke-miterlimit:10;}
</style>
<g>
	<g>
		<path class="st2" d="M2.7,6.8C2.7,6.4,2.3,6,1.9,6S1,6.4,1,6.8s0.4,0.8,0.8,0.8S2.7,7.3,2.7,6.8z M1.9,7.4c-0.3,0-0.6-0.3-0.6-0.6
			c0-0.3,0.3-0.6,0.6-0.6s0.6,0.3,0.6,0.6C2.4,7.2,2.2,7.4,1.9,7.4z"/>
		<path class="st2" d="M1,13.1C1,13.6,1.4,14,1.9,14s0.8-0.4,0.8-0.8c0-0.4-0.4-0.8-0.8-0.8S1,12.7,1,13.1z M1.9,12.6
			c0.3,0,0.6,0.3,0.6,0.6c0,0.3-0.3,0.6-0.6,0.6s-0.6-0.3-0.6-0.6C1.3,12.8,1.5,12.6,1.9,12.6z"/>
		<path class="st2" d="M4.1,13.1c0,0.4,0.4,0.8,0.8,0.8s0.8-0.4,0.8-0.8c0-0.4-0.4-0.8-0.8-0.8S4.1,12.7,4.1,13.1z M4.9,12.6
			c0.3,0,0.6,0.3,0.6,0.6c0,0.3-0.3,0.6-0.6,0.6c-0.3,0-0.6-0.3-0.6-0.6C4.3,12.8,4.6,12.6,4.9,12.6z"/>
		<path class="st2" d="M5.7,6.8C5.7,6.4,5.3,6,4.9,6S4.1,6.4,4.1,6.8s0.4,0.8,0.8,0.8S5.7,7.3,5.7,6.8z M4.9,7.4
			c-0.3,0-0.6-0.3-0.6-0.6c0-0.3,0.3-0.6,0.6-0.6c0.3,0,0.6,0.3,0.6,0.6C5.5,7.2,5.2,7.4,4.9,7.4z"/>
		<path class="st2" d="M8.7,6.8C8.7,6.4,8.4,6,7.9,6C7.5,6,7.1,6.4,7.1,6.8c0,0.4,0.3,0.7,0.7,0.8v2.2H5V7.7H4.9H4.8v2.2H2V7.7H1.9
			H1.7v4.7h0.1H2v-2.2h2.8v2.2h0.1H5v-2.2h2.8h0.1H8V7.7C8.4,7.6,8.7,7.3,8.7,6.8z M7.9,7.4c-0.3,0-0.6-0.3-0.6-0.6
			c0-0.3,0.3-0.6,0.6-0.6c0.3,0,0.6,0.3,0.6,0.6C8.5,7.2,8.2,7.4,7.9,7.4z"/>
	</g>
	<g>
		<path class="st0" d="M16.8,8.3c0.3,0,0.6-0.1,0.9-0.1c0.6,0,0.9,0.1,1.2,0.3c0.3,0.2,0.5,0.6,0.5,1.1c0,0.6-0.2,1-0.5,1.2
			c-0.3,0.3-0.8,0.4-1.4,0.4c-0.4,0-0.6,0-0.8,0V8.3z M17.5,10.8c0.1,0,0.2,0,0.2,0c0.6,0,1-0.3,1-1.1c0-0.6-0.4-1-1-1
			c-0.2,0-0.3,0-0.3,0V10.8z"/>
	</g>
	<g>
		<path class="st0" d="M11.7,8.9v1h0.9v0.4h-0.9v1h-0.4v-1h-0.9V9.9h0.9v-1H11.7z"/>
	</g>
	<circle class="st3" cx="18" cy="9.8" r="3.2"/>
</g>
</svg>
